#!OML:ASF F:\VICON\USERDATA\INSTALL\rory3\rory3.ASF
:FULLY-SPECIFIED
:DEGREES
127
root 0.810894 18.027 -0.974862 -2.13489 2.99687 2.17807
lowerback 11.1242 -0.770326 -3.11674
upperback 0.0289062 -1.37651 0.795998
thorax -6.12456 -0.569131 2.81814
lowerneck -16.9051 -2.68984 -1.55795
upperneck 21.3477 -3.28157 -0.191541
head 9.56492 -1.67562 -0.237243
rclavicle -4.87022e-015 5.96354e-015
rhumerus -34.5375 -22.9661 -75.7116
rradius 24.136
rwrist 5.48788
rhand -14.1401 23.1361
rfingers 7.12502
rthumb 11.994 -6.50023
lclavicle -4.87022e-015 5.96354e-015
lhumerus -23.8119 -2.28416 83.3483
lradius 25.385
lwrist 6.45875
lhand -26.269 27.8652
lfingers 7.12502
lthumb 0.285941 57.8448
rfemur -31.9384 -4.68704 19.9711
rtibia 62.1932
rfoot -12.4407 -6.34317
rtoes -5.31469
lfemur -2.33633 0.723928 -27.9738
ltibia 25.7936
lfoot -16.4468 -0.731988
ltoes 2.688
128
root 0.806736 18.0188 -0.81465 -2.02912 3.11571 2.15971
lowerback 11.0076 -0.839228 -3.23498
upperback 0.190894 -1.47172 0.886529
thorax -5.87561 -0.618732 2.98929
lowerneck -17.1124 -2.6908 -1.61295
upperneck 21.153 -3.26157 -0.192414
head 9.53587 -1.67029 -0.22704
rclavicle -4.96962e-017 -2.78299e-015
rhumerus -34.2595 -22.9059 -75.8558
rradius 24.0488
rwrist 5.4356
rhand -14.1712 22.454
rfingers 7.12502
rthumb 11.964 -7.18414
lclavicle -4.96962e-017 -2.78299e-015
lhumerus -23.1206 -2.44278 83.3801
lradius 25.7419
lwrist 6.64517
lhand -26.4628 30.0538
lfingers 7.12502
lthumb 0.0987638 60.0335
rfemur -32.4259 -4.49936 20.0718
rtibia 59.9106
rfoot -12.2621 -6.72043
rtoes -5.67957
lfemur -1.5165 0.748831 -27.9611
ltibia 25.3388
lfoot -16.6115 -0.547145
ltoes 2.48962
129
root 0.801359 18.0205 -0.649172 -1.88203 3.10575 2.21832
lowerback 10.9446 -0.860043 -3.39068
upperback 0.180958 -1.51408 0.937925
thorax -5.84236 -0.635097 3.13644
lowerneck -16.8944 -2.72047 -1.70792
upperneck 20.9215 -3.28335 -0.176684
head 9.41683 -1.68718 -0.203297
rclavicle -1.64494e-014 5.56597e-015
rhumerus -34.2192 -22.9135 -75.8514
rradius 23.9359
rwrist 5.68881
rhand -13.9827 22.4947
rfingers 7.12502
rthumb 12.1458 -7.13277
lclavicle -1.64494e-014 5.56597e-015
lhumerus -22.8053 -2.87432 83.4896
lradius 26.2339
lwrist 7.1058
lhand -26.7139 28.884
lfingers 7.12502
lthumb -0.143776 58.8637
rfemur -32.7718 -4.08586 20.0428
rtibia 57.3329
rfoot -12.0816 -7.11504
rtoes -4.92633
lfemur -0.633979 0.71263 -28.0334
ltibia 24.7853
lfoot -16.8291 -0.335683
ltoes 3.43709
130
root 0.795235 18.0312 -0.480406 -1.71466 3.29291 2.33306
lowerback 10.9929 -0.928461 -3.49683
upperback 0.0868068 -1.62579 0.869083
thorax -5.95963 -0.683753 3.14437
lowerneck -16.8807 -2.79029 -1.64783
upperneck 21.0569 -3.39446 -0.194471
head 9.46092 -1.73612 -0.23498
rclavicle 1.77664e-014 3.97569e-015
rhumerus -34.5164 -22.9836 -75.9129
rradius 24.0718
rwrist 5.64574
rhand -13.7836 23.4372
rfingers 7.12502
rthumb 12.3378 -6.17873
lclavicle 1.77664e-014 3.97569e-015
lhumerus -22.4645 -3.48463 83.4811
lradius 26.6894
lwrist 7.32132
lhand -26.3039 28.1698
lfingers 7.12502
lthumb 0.252212 58.1494
rfemur -33.0626 -3.8245 19.9405
rtibia 54.5284
rfoot -11.2628 -8.47247
rtoes -5.11762
lfemur 0.153771 0.745216 -28.127
ltibia 24.1657
lfoot -16.8972 -0.352864
ltoes 3.97464
131
root 0.793274 18.0479 -0.30896 -1.63506 3.60686 2.29136
lowerback 10.9895 -1.04817 -3.43105
upperback 0.12553 -1.77653 0.857301
thorax -5.90707 -0.761657 3.11714
lowerneck -16.9995 -2.79802 -1.49641
upperneck 21.1404 -3.414 -0.323652
head 9.50664 -1.74728 -0.309813
rclavicle 1.70706e-014 -2.0276e-014
rhumerus -34.6715 -23.0004 -76.0379
rradius 24.2239
rwrist 5.38429
rhand -13.8837 24.1993
rfingers 7.12502
rthumb 12.2412 -5.42242
lclavicle 1.70706e-014 -2.0276e-014
lhumerus -21.887 -3.90402 83.4359
lradius 27.1315
lwrist 7.62922
lhand -25.7702 27.7784
lfingers 7.12502
lthumb 0.767733 57.7568
rfemur -33.2456 -3.75252 19.9822
rtibia 51.5332
rfoot -9.7973 -9.46843
rtoes -5.01139
lfemur 1.22756 0.736091 -28.0574
ltibia 23.4098
lfoot -17.1019 -0.249214
ltoes 3.23953
132
root 0.790067 18.0357 -0.13219 -1.54659 3.87844 2.39222
lowerback 10.8811 -1.20554 -3.63456
upperback 0.152901 -2.00263 0.933561
thorax -5.79021 -0.869323 3.34266
lowerneck -17.181 -2.66598 -1.4529
upperneck 21.2496 -3.19412 -0.509529
head 9.57331 -1.66244 -0.356282
rclavicle -4.04278e-014 -4.77083e-015
rhumerus -34.7121 -22.6926 -76.058
rradius 24.1476
rwrist 5.21116
rhand -13.9671 24.5907
rfingers 7.12502
rthumb 12.1608 -5.03581
lclavicle -4.04278e-014 -4.77083e-015
lhumerus -21.7349 -4.13691 83.5169
lradius 27.7387
lwrist 8.06108
lhand -25.7802 27.1276
lfingers 7.12502
lthumb 0.758029 57.106
rfemur -33.1116 -3.56567 19.7908
rtibia 48.5226
rfoot -8.73641 -9.59072
rtoes -4.52276
lfemur 2.23554 0.790426 -28.1242
ltibia 22.6008
lfoot -17.1482 -0.132871
ltoes 3.06949
133
root 0.781131 18.0153 0.0389937 -1.31948 3.99773 2.43933
lowerback 10.7297 -1.29865 -3.77834
upperback 0.0734952 -2.13735 0.981555
thorax -5.77095 -0.930282 3.49099
lowerneck -17.1278 -2.62549 -1.56594
upperneck 21.2077 -3.12461 -0.43777
head 9.55189 -1.63129 -0.302379
rclavicle 7.23079e-015 -1.59028e-015
rhumerus -34.7977 -22.6512 -76.0355
rradius 23.9872
rwrist 5.08826
rhand -13.8914 24.2732
rfingers 7.12502
rthumb 12.2338 -5.34898
lclavicle 7.23079e-015 -1.59028e-015
lhumerus -21.6034 -4.26512 83.5136
lradius 28.202
lwrist 8.04894
lhand -25.8338 27.8478
lfingers 7.12502
lthumb 0.70628 57.8263
rfemur -33.1443 -3.05788 19.6192
rtibia 45.4284
rfoot -7.82221 -9.80297
rtoes -4.64052
lfemur 2.86602 0.648114 -28.1724
ltibia 21.6596
lfoot -16.8018 0.408692
ltoes 1.70418
134
root 0.765702 18.008 0.210494 -1.14962 3.94597 2.38214
lowerback 10.5655 -1.25755 -3.80993
upperback 0.0949552 -2.0803 0.976405
thorax -5.6599 -0.904812 3.4883
lowerneck -17.1744 -2.73564 -1.62254
upperneck 21.1437 -3.30689 -0.248934
head 9.54356 -1.69861 -0.251862
rclavicle -3.00662e-015 1.43125e-014
rhumerus -34.9428 -23.0952 -75.9546
rradius 23.9821
rwrist 5.38554
rhand -13.9138 23.3006
rfingers 7.12502
rthumb 12.2122 -6.32292
lclavicle -3.00662e-015 1.43125e-014
lhumerus -21.1295 -4.80621 83.5079
lradius 28.4189
lwrist 8.13574
lhand -26.6516 27.0849
lfingers 7.12502
lthumb -0.0836277 57.0646
rfemur -33.0254 -2.08195 19.4508
rtibia 42.264
rfoot -7.39423 -10.2184
rtoes -1.83401
lfemur 3.72068 0.68821 -28.0243
ltibia 20.6143
lfoot -16.5314 0.466338
ltoes 1.2735
135
root 0.757716 18.0211 0.387148 -0.94214 3.9813 2.40958
lowerback 10.3761 -1.28462 -3.9399
upperback 0.0746081 -2.12219 1.02723
thorax -5.56482 -0.923586 3.61472
lowerneck -17.1139 -2.76561 -1.75313
upperneck 21.2547 -3.31504 -0.246399
head 9.57418 -1.71284 -0.230702
rclavicle -2.33572e-015 1.59028e-015
rhumerus -34.9769 -23.0095 -75.9641
rradius 23.8855
rwrist 5.27714
rhand -13.9359 23.5619
rfingers 7.12502
rthumb 12.1909 -6.0628
lclavicle -2.33572e-015 1.59028e-015
lhumerus -20.7972 -5.08915 83.5786
lradius 28.6018
lwrist 8.03989
lhand -27.5185 25.1615
lfingers 7.12502
lthumb -0.920831 55.1393
rfemur -32.8347 -1.08521 19.111
rtibia 38.9258
rfoot -6.71187 -10.7256
rtoes 1.88039
lfemur 4.72893 0.812383 -27.93
ltibia 19.486
lfoot -16.3531 0.203496
ltoes 0.719663
136
root 0.747982 18.0309 0.560755 -0.695224 4.20769 2.58223
lowerback 10.2144 -1.36853 -4.21981
upperback 0.0350116 -2.26152 1.02534
thorax -5.49288 -0.98613 3.78531
lowerneck -16.946 -2.67086 -1.61936
upperneck 21.1192 -3.19478 -0.361218
head 9.48995 -1.65988 -0.272704
rclavicle -3.67752e-015 1.47101e-014
rhumerus -35.0108 -23.2785 -75.8655
rradius 23.7412
rwrist 5.47349
rhand -13.6611 24.5695
rfingers 7.12502
rthumb 12.4559 -5.03928
lclavicle -3.67752e-015 1.47101e-014
lhumerus -20.4373 -5.49994 83.5931
lradius 28.8633
lwrist 8.17185
lhand -27.3856 25.019
lfingers 7.12502
lthumb -0.792533 54.9972
rfemur -32.6401 -0.133957 18.5372
rtibia 35.389
rfoot -5.57705 -11.2139
rtoes 4.83472
lfemur 5.62515 0.876474 -27.9524
ltibia 18.3936
lfoot -16.0583 -0.147935
ltoes -0.160859
137
root 0.737525 18.0272 0.743334 -0.588966 4.5182 2.76547
lowerback 10.0181 -1.51488 -4.52447
upperback 0.10932 -2.4806 1.04636
thorax -5.27002 -1.094 3.99945
lowerneck -16.9604 -2.6046 -1.62704
upperneck 20.9332 -3.0982 -0.364429
head 9.427 -1.61591 -0.258292
rclavicle -1.881e-014 2.38542e-015
rhumerus -34.7636 -23.5755 -75.7371
rradius 23.2702
rwrist 5.83145
rhand -13.3761 25.2247
rfingers 7.12502
rthumb 12.7306 -4.36722
lclavicle -1.881e-014 2.38542e-015
lhumerus -20.1345 -5.61821 83.6025
lradius 29.2162
lwrist 8.30789
lhand -27.3819 24.6518
lfingers 7.12502
lthumb -0.788984 54.6301
rfemur -32.1645 0.78661 17.9183
rtibia 31.7874
rfoot -6.65665 -12.4485
rtoes -1.27797
lfemur 6.87217 0.826447 -27.9654
ltibia 17.1765
lfoot -15.8268 -0.859106
ltoes 0.0291782
138
root 0.727742 18.0102 0.934448 -0.55706 4.73316 2.83929
lowerback 9.89728 -1.63253 -4.68233
upperback 0.137215 -2.64909 1.04583
thorax -5.14896 -1.17758 4.10431
lowerneck -16.8963 -2.59514 -1.60977
upperneck 20.8329 -3.09487 -0.347356
head 9.38003 -1.61129 -0.25293
rclavicle 8.69683e-015 -1.98785e-015
rhumerus -34.8045 -23.699 -75.6658
rradius 23.0174
rwrist 6.12665
rhand -13.4071 25.8711
rfingers 7.12502
rthumb 12.7007 -3.72263
lclavicle 8.69683e-015 -1.98785e-015
lhumerus -20.1445 -5.80689 83.5427
lradius 29.7685
lwrist 8.41232
lhand -26.804 23.8225
lfingers 7.12502
lthumb -0.230802 53.8021
rfemur -31.4617 1.89735 17.3536
rtibia 28.2826
rfoot -9.60479 -13.6116
rtoes 5.50591
lfemur 8.21246 0.709868 -27.8883
ltibia 16.0269
lfoot -15.7407 -1.58571
ltoes 0.670545
